<svg width="48" height="48" viewBox="0 0 48 48" fill="none" xmlns="http://www.w3.org/2000/svg">
<path d="M24 0C10.767 0 0 10.767 0 24C0 37.233 10.767 48 24 48C37.233 48 48 37.233 48 24C48 10.767 37.233 0 24 0ZM32.97 12.03C36.279 12.03 38.97 14.721 38.97 18.03C38.97 18.858 38.298 19.53 37.47 19.53C36.642 19.53 35.97 18.858 35.97 18.03C35.97 16.377 34.626 15.03 32.97 15.03C31.314 15.03 29.97 16.377 29.97 18.03C29.97 18.858 29.298 19.53 28.47 19.53C27.642 19.53 26.97 18.858 26.97 18.03C26.97 14.721 29.661 12.03 32.97 12.03ZM14.97 12.03C18.279 12.03 20.97 14.721 20.97 18.03C20.97 18.858 20.298 19.53 19.47 19.53C18.642 19.53 17.97 18.858 17.97 18.03C17.97 16.377 16.623 15.03 14.97 15.03C13.317 15.03 11.97 16.377 11.97 18.03C11.97 18.858 11.298 19.53 10.47 19.53C9.642 19.53 8.97 18.858 8.97 18.03C8.97 14.721 11.661 12.03 14.97 12.03ZM23.97 42.03C15.945 42.03 8.826 36.645 6.657 28.938C6.528 28.485 6.618 28.002 6.903 27.627C7.185 27.252 7.629 27.03 8.1 27.03H39.84C40.308 27.03 40.752 27.249 41.034 27.624C41.316 27.999 41.409 28.482 41.283 28.938C39.111 36.645 31.992 42.03 23.97 42.03Z" fill="#959595"/>
</svg>
