<svg width="48" height="48" viewBox="0 0 48 48" fill="none" xmlns="http://www.w3.org/2000/svg">
<path d="M24 0C10.767 0 0 10.767 0 24C0 37.233 10.767 48 24 48C37.233 48 48 37.233 48 24C48 10.767 37.233 0 24 0ZM12 18C12 16.347 13.347 15 15 15C16.653 15 18 16.347 18 18C18 19.653 16.653 21 15 21C13.347 21 12 19.653 12 18ZM34.605 36.516C34.311 36.81 33.927 36.954 33.543 36.954C33.159 36.954 32.775 36.807 32.481 36.516C27.945 31.98 20.043 31.98 15.51 36.516C14.925 37.101 13.974 37.101 13.389 36.516C12.804 35.931 12.804 34.98 13.389 34.395C16.227 31.563 19.992 30 24 30C28.008 30 31.773 31.563 34.605 34.395C35.19 34.98 35.19 35.931 34.605 36.516ZM33 21C31.347 21 30 19.653 30 18C30 16.347 31.347 15 33 15C34.653 15 36 16.347 36 18C36 19.653 34.653 21 33 21Z" fill="#959595"/>
</svg>
