<svg width="223" height="46" viewBox="0 0 223 46" fill="none" xmlns="http://www.w3.org/2000/svg">
<path d="M21.5678 1.17969C21.5678 13.0912 11.9115 22.7475 0 22.7475V38.9233H37.7436V1.17969H21.5678Z" fill="#F8F8F8"/>
<path d="M16.1758 1.17969C16.1758 10.1133 8.93366 17.3555 0 17.3555V1.17969H16.1758Z" fill="#F8F8F8"/>
<path d="M57.7319 10.308V31H61.8759V23.86H65.0679C67.6159 23.86 69.5199 23.216 70.7799 21.956C72.0399 20.668 72.6839 19.072 72.6839 17.14C72.6839 15.236 72.0679 13.612 70.8359 12.296C69.6319 10.98 67.8119 10.308 65.3759 10.308H57.7319ZM61.8759 20.108V14.144H65.4319C67.3079 14.144 68.4559 15.432 68.4559 17.084C68.4559 18.764 67.3359 20.108 65.2079 20.108H61.8759ZM76.5947 31H80.7667V10.308H76.5947V31ZM90.3561 31H94.5561V14.312H100.464V10.308H84.4481V14.312H90.3561V31ZM117.165 31.336C119.433 31.336 121.253 30.748 122.653 29.572C124.053 28.396 124.753 26.884 124.753 25.036C124.753 22.74 123.577 21.032 121.225 19.884C120.693 19.632 119.853 19.268 118.705 18.792L116.661 17.896C115.541 17.336 114.981 16.664 114.981 15.852C114.981 14.648 115.989 13.864 117.641 13.864C119.181 13.864 121.029 14.564 122.177 15.796L124.389 12.772C122.541 10.896 120.273 9.972 117.585 9.972C115.513 9.972 113.805 10.56 112.489 11.708C111.173 12.856 110.529 14.284 110.529 16.02C110.529 18.204 111.621 19.912 113.805 21.172C114.365 21.48 115.177 21.872 116.241 22.292C117.333 22.712 118.005 22.964 118.285 23.104C119.545 23.692 120.161 24.42 120.161 25.26C120.161 26.576 118.901 27.472 117.193 27.472C115.065 27.472 113.049 26.464 111.705 24.588L109.325 27.472C111.033 29.964 113.945 31.336 117.165 31.336ZM132.753 31H136.953V14.312H142.861V10.308H126.845V14.312H132.753V31ZM146.294 23.44C146.294 26.044 147.05 28.004 148.59 29.348C150.13 30.692 152.062 31.364 154.386 31.364C156.71 31.364 158.642 30.692 160.154 29.348C161.694 28.004 162.45 26.044 162.45 23.44V10.308H158.25V23.16C158.25 25.848 156.738 27.332 154.386 27.332C151.95 27.332 150.466 25.932 150.466 23.16V10.308H146.294V23.44ZM175.711 31C178.875 31 181.339 30.076 183.131 28.228C184.951 26.38 185.847 23.86 185.847 20.696C185.847 17.476 184.951 14.956 183.187 13.108C181.423 11.232 178.987 10.308 175.879 10.308H167.787V31H175.711ZM171.931 14.284H175.907C177.699 14.284 179.071 14.9 180.051 16.104C181.031 17.308 181.535 18.792 181.535 20.612C181.535 22.46 181.031 24 180.051 25.204C179.071 26.408 177.699 27.024 175.907 27.024H171.931V14.284ZM190.314 31H194.486V10.308H190.314V31ZM209.619 31.336C212.671 31.336 215.219 30.3 217.291 28.228C219.391 26.156 220.427 23.636 220.427 20.668C220.427 17.7 219.391 15.18 217.291 13.08C215.219 10.98 212.671 9.944 209.647 9.944C206.623 9.944 204.075 10.98 201.975 13.08C199.903 15.18 198.867 17.728 198.867 20.724C198.867 23.72 199.903 26.24 201.947 28.284C203.991 30.328 206.567 31.336 209.619 31.336ZM216.115 20.668C216.143 22.544 215.527 24.112 214.267 25.372C213.007 26.632 211.467 27.248 209.647 27.248C207.827 27.248 206.287 26.632 205.027 25.372C203.795 24.112 203.179 22.544 203.179 20.668C203.179 18.792 203.795 17.196 205.055 15.936C206.315 14.676 207.827 14.032 209.647 14.032C211.467 14.032 212.979 14.676 214.239 15.936C215.499 17.196 216.115 18.764 216.115 20.668Z" fill="#F8F8F8"/>
</svg>
