<svg width="189" height="39" viewBox="0 0 189 39" fill="none" xmlns="http://www.w3.org/2000/svg">
<path d="M18.2857 1C18.2857 11.0989 10.0989 19.2857 0 19.2857V33H32V1H18.2857Z" fill="#303030"/>
<path d="M13.7143 1C13.7143 8.57419 7.57419 14.7143 0 14.7143V1H13.7143Z" fill="#303030"/>
<path d="M48.9466 8.45678V26H52.46V19.9465H55.1663C57.3265 19.9465 58.9408 19.4005 60.009 18.3323C61.0773 17.2403 61.6233 15.8871 61.6233 14.2491C61.6233 12.6349 61.101 11.258 60.0565 10.1423C59.0357 9.02652 57.4927 8.45678 55.4274 8.45678H48.9466ZM52.46 16.7655V11.709H55.4749C57.0654 11.709 58.0387 12.801 58.0387 14.2017C58.0387 15.626 57.0891 16.7655 55.285 16.7655H52.46ZM64.939 26H68.4761V8.45678H64.939V26ZM76.6062 26H80.1671V11.8515H85.176V8.45678H71.5973V11.8515H76.6062V26ZM99.3359 26.2849C101.259 26.2849 102.802 25.7863 103.989 24.7893C105.176 23.7923 105.769 22.5103 105.769 20.9436C105.769 18.997 104.772 17.5489 102.778 16.5756C102.327 16.3619 101.615 16.0533 100.642 15.6497L98.9086 14.8901C97.959 14.4153 97.4842 13.8456 97.4842 13.1571C97.4842 12.1363 98.3388 11.4717 99.7394 11.4717C101.045 11.4717 102.612 12.0651 103.585 13.1097L105.461 10.5458C103.894 8.9553 101.971 8.17191 99.692 8.17191C97.9353 8.17191 96.4872 8.67043 95.3714 9.64374C94.2557 10.617 93.7097 11.8277 93.7097 13.2996C93.7097 15.1512 94.6355 16.5993 96.4872 17.6676C96.962 17.9287 97.6504 18.261 98.5525 18.6171C99.4783 18.9732 100.048 19.1869 100.285 19.3056C101.354 19.8041 101.876 20.4213 101.876 21.1335C101.876 22.2492 100.808 23.0089 99.3596 23.0089C97.5554 23.0089 95.8462 22.1543 94.7068 20.5637L92.6889 23.0089C94.137 25.1217 96.6059 26.2849 99.3359 26.2849ZM112.552 26H116.112V11.8515H121.121V8.45678H107.543V11.8515H112.552V26ZM124.032 19.5904C124.032 21.7982 124.673 23.4599 125.979 24.5994C127.284 25.7389 128.922 26.3086 130.893 26.3086C132.863 26.3086 134.501 25.7389 135.783 24.5994C137.089 23.4599 137.729 21.7982 137.729 19.5904V8.45678H134.169V19.353C134.169 21.632 132.887 22.8902 130.893 22.8902C128.827 22.8902 127.569 21.7032 127.569 19.353V8.45678H124.032V19.5904ZM148.973 26C151.655 26 153.744 25.2166 155.263 23.6498C156.806 22.083 157.566 19.9465 157.566 17.264C157.566 14.534 156.806 12.3975 155.311 10.8307C153.815 9.24017 151.75 8.45678 149.115 8.45678H142.254V26H148.973ZM145.768 11.8277H149.139C150.658 11.8277 151.821 12.35 152.652 13.3708C153.483 14.3916 153.91 15.6497 153.91 17.1928C153.91 18.7596 153.483 20.0652 152.652 21.086C151.821 22.1068 150.658 22.629 149.139 22.629H145.768V11.8277ZM161.353 26H164.89V8.45678H161.353V26ZM177.721 26.2849C180.308 26.2849 182.469 25.4065 184.225 23.6498C186.006 21.8931 186.884 19.7566 186.884 17.2403C186.884 14.7239 186.006 12.5874 184.225 10.807C182.469 9.02652 180.308 8.14817 177.745 8.14817C175.181 8.14817 173.02 9.02652 171.24 10.807C169.483 12.5874 168.605 14.7477 168.605 17.2877C168.605 19.8278 169.483 21.9643 171.216 23.6973C172.949 25.4303 175.133 26.2849 177.721 26.2849ZM183.228 17.2403C183.252 18.8308 182.73 20.1602 181.662 21.2284C180.593 22.2967 179.288 22.819 177.745 22.819C176.202 22.819 174.896 22.2967 173.828 21.2284C172.783 20.1602 172.261 18.8308 172.261 17.2403C172.261 15.6497 172.783 14.2966 173.851 13.2283C174.92 12.1601 176.202 11.6141 177.745 11.6141C179.288 11.6141 180.57 12.1601 181.638 13.2283C182.706 14.2966 183.228 15.626 183.228 17.2403Z" fill="black"/>
</svg>
