<svg width="38" height="28" viewBox="0 0 38 28" fill="none" xmlns="http://www.w3.org/2000/svg">
<path d="M38 23.5001C38 25.8318 36.1095 27.7223 33.7778 27.7223H4.22222C1.8905 27.7223 0 25.8318 0 23.5001V4.50005C0 2.16833 1.8905 0.277832 4.22222 0.277832H33.7778C36.1095 0.277832 38 2.16833 38 4.50005V23.5001Z" fill="#CCD6DD"/>
<path d="M12.6129 13.6158L0.672464 25.5563C0.643964 25.5869 0.633409 25.6238 0.609131 25.6534C0.96802 26.255 1.46835 26.7543 2.07002 27.1143C2.10063 27.09 2.13652 27.0794 2.16502 27.0509L14.1076 15.1084C14.5192 14.6956 14.5192 14.0285 14.1076 13.6158C13.6938 13.2031 13.0267 13.2031 12.6129 13.6158ZM37.391 25.6534C37.3689 25.6238 37.3562 25.5869 37.3277 25.5584L25.3872 13.6158C24.9735 13.2031 24.3064 13.2031 23.8936 13.6158C23.4809 14.0296 23.4809 14.6967 23.8936 15.1084L35.8351 27.0509C35.8626 27.0784 35.9006 27.09 35.9301 27.1143C36.5329 26.7554 37.0321 26.255 37.391 25.6534Z" fill="#99AAB5"/>
<path d="M33.7778 0.277832H4.22222C1.8905 0.277832 0 2.16833 0 4.50005V5.58728L15.3341 20.8886C17.3343 22.8868 20.5992 22.8868 22.6016 20.8886L38 5.56511V4.50005C38 2.16833 36.1095 0.277832 33.7778 0.277832Z" fill="#99AAB5"/>
<path d="M33.7778 0.277832H4.22221C2.54599 0.277832 1.10938 1.26372 0.42749 2.67922L16.0138 18.2666C17.6626 19.9154 20.3374 19.9154 21.9851 18.2666L37.5725 2.67922C36.8906 1.26372 35.455 0.277832 33.7778 0.277832Z" fill="#E1E8ED"/>
<path d="M28.5 12.7123C28.5 9.8053 26.144 7.44824 23.237 7.44824C21.4721 7.44824 19.9141 8.32013 18.9588 9.65119C18.0025 8.32013 16.4455 7.44824 14.6828 7.44824C11.7758 7.44824 9.4187 9.8053 9.4187 12.7123C9.4187 13.125 9.47148 13.524 9.56015 13.9082C10.2916 18.4492 15.3404 23.2404 18.9588 24.5556C22.5773 23.2404 27.627 18.4492 28.3575 13.9093C28.4472 13.524 28.5 13.124 28.5 12.7123Z" fill="#DD2E44"/>
</svg>
