<svg width="34" height="36" viewBox="0 0 34 36" fill="none" xmlns="http://www.w3.org/2000/svg">
<path d="M15.8715 21.8227C15.8715 21.8227 17.8085 29.6957 17.0585 31.1957C14.6855 35.9417 15.8715 35.8227 17.0585 35.8227H19.4315C21.8045 35.8227 18.2445 21.8227 18.2445 21.8227H15.8715ZM3.44646 19.2097C3.44646 19.2097 3.01046 27.2027 2.25946 28.7027C-0.113542 33.4487 -0.113542 35.8227 1.07346 35.8227H3.44646C4.63246 35.8227 4.63346 31.6687 4.63346 30.4827C4.63346 29.2957 5.82046 21.8797 5.82046 21.8797L3.44646 19.2097Z" fill="#3E721D"/>
<path d="M10.5655 5.07376C8.49752 5.09076 6.35652 4.63876 5.04252 7.17276C3.63852 9.88176 2.97752 15.7518 5.81852 16.8368C8.29752 17.7838 13.7515 15.6498 19.6845 18.0238C25.6175 20.3968 27.9905 34.6358 32.6995 34.6538C33.9235 34.6588 33.9055 35.7768 32.7005 35.7858C26.7865 35.8308 24.1915 29.8888 23.1915 29.8888C23.1915 29.8888 24.1915 35.8228 23.1915 35.8228H19.1915C18.1915 35.8228 19.1915 32.7418 19.1915 31.5548V29.8878C19.1915 29.8878 17.5985 31.1058 13.2555 31.1058C9.97252 31.1068 7.19152 29.8888 7.19152 29.8888C7.19152 29.8888 8.19152 35.8228 7.19152 35.8228H3.44652C1.76852 35.8228 3.61252 31.8098 3.44652 29.8888C3.34452 28.7068 2.93652 25.1318 2.22252 23.9558C0.496519 21.1088 -0.540481 12.4348 0.293519 8.67076C1.07452 5.14476 3.41552 2.03776 4.96852 1.16076C6.48752 0.301757 7.83152 -0.339243 11.1595 0.195757C12.9345 0.480757 14.7505 3.11776 14.0495 4.46976C13.6285 5.27976 12.1095 5.06076 10.5655 5.07376Z" fill="#77B255"/>
<path d="M11.1587 2.00377C11.1587 2.33177 10.8937 2.59677 10.5657 2.59677C10.2377 2.59677 9.97266 2.33177 9.97266 2.00377C9.97266 1.67577 10.2377 1.41077 10.5657 1.41077C10.8937 1.41077 11.1587 1.67677 11.1587 2.00377Z" fill="black"/>
<path d="M8.40958 18.3078C8.50358 18.6118 8.33358 18.9338 8.02958 19.0278C7.72558 19.1218 7.40358 18.9518 7.30958 18.6478C7.21558 18.3438 7.38558 18.0218 7.68958 17.9278C7.99358 17.8338 8.31558 18.0038 8.40958 18.3078ZM12.2836 19.5558C12.4176 19.9888 12.1756 20.4478 11.7436 20.5808C11.3116 20.7148 10.8516 20.4728 10.7176 20.0398C10.5836 19.6078 10.8256 19.1478 11.2586 19.0148C11.6906 18.8818 12.1496 19.1238 12.2836 19.5558ZM10.6586 18.1298C10.7296 18.3598 10.6016 18.6038 10.3706 18.6748C10.1406 18.7458 9.89658 18.6168 9.82558 18.3868C9.75458 18.1568 9.88358 17.9128 10.1136 17.8418C10.3436 17.7708 10.5876 17.8998 10.6586 18.1298ZM13.1166 17.7988C13.1836 18.0168 13.0626 18.2468 12.8446 18.3148C12.6276 18.3818 12.3966 18.2608 12.3286 18.0428C12.2616 17.8248 12.3826 17.5948 12.6006 17.5268C12.8186 17.4598 13.0496 17.5818 13.1166 17.7988ZM15.9596 18.1488C16.0846 18.5508 15.8586 18.9778 15.4566 19.1028C15.0546 19.2278 14.6276 19.0028 14.5026 18.5998C14.3776 18.1978 14.6036 17.7708 15.0056 17.6458C15.4086 17.5208 15.8356 17.7468 15.9596 18.1488ZM20.7126 20.1278C20.7926 20.3858 20.6486 20.6588 20.3906 20.7378C20.1336 20.8178 19.8596 20.6738 19.7806 20.4158C19.7006 20.1588 19.8446 19.8848 20.1026 19.8058C20.3606 19.7258 20.6336 19.8708 20.7126 20.1278ZM14.8586 20.1278C14.9386 20.3858 14.7946 20.6588 14.5366 20.7378C14.2796 20.8178 14.0056 20.6738 13.9266 20.4158C13.8466 20.1588 13.9906 19.8848 14.2486 19.8058C14.5056 19.7258 14.7796 19.8708 14.8586 20.1278ZM19.0766 18.8218C19.1566 19.0788 19.0126 19.3528 18.7546 19.4318C18.4976 19.5118 18.2236 19.3678 18.1446 19.1098C18.0656 18.8518 18.2086 18.5788 18.4666 18.4998C18.7236 18.4198 18.9976 18.5648 19.0766 18.8218ZM17.5756 19.0208C17.6936 19.4018 17.4806 19.8058 17.0996 19.9238C16.7186 20.0418 16.3146 19.8288 16.1966 19.4478C16.0786 19.0668 16.2916 18.6628 16.6726 18.5448C17.0536 18.4268 17.4576 18.6398 17.5756 19.0208Z" fill="#5C913B"/>
</svg>
