<svg width="36" height="35" viewBox="0 0 36 35" fill="none" xmlns="http://www.w3.org/2000/svg">
<path d="M6.33468 27.5504C11.3407 32.5564 22.8367 39.5194 35.8677 27.4804C28.5017 26.0634 27.2057 16.6914 22.1987 11.6864C17.1927 6.67939 10.2077 5.54739 5.20068 10.5534C0.194678 15.5594 1.32768 22.5434 6.33468 27.5504Z" fill="#A6D388"/>
<path d="M24.6178 28.8103C30.7458 30.4443 35.2758 28.0723 35.6938 27.6543C35.6938 27.6543 31.9078 29.4053 25.3348 26.1783C26.2868 24.9663 29.1888 23.2693 29.1888 23.2693C28.6358 22.9233 25.1108 23.0443 22.7038 24.6983C21.5458 23.9653 20.3198 23.0813 19.0308 22.0233L19.8708 21.1523C23.1208 17.7683 26.8148 18.5683 26.8148 18.5683C26.1768 17.9553 21.2158 15.1273 17.2318 19.2683L16.6188 19.9063C16.1928 19.5073 15.7628 19.0943 15.3248 18.6563L13.4748 16.8063L14.5388 15.7413C17.8598 12.4213 22.7648 12.2903 22.7648 12.2903C22.1388 11.6633 15.9018 9.64128 11.8408 13.7023L11.1048 14.4373L2.81278 6.14328C2.18678 5.51628 1.12078 5.56828 0.495778 6.19328C-0.130222 6.81928 -0.181222 7.88428 0.444778 8.51028L8.73778 16.8033L8.67878 16.8623C4.61778 20.9243 6.30378 27.4963 6.93078 28.1233C6.93078 28.1233 7.39878 22.8813 10.7198 19.5613L11.1068 19.1733L14.6078 22.6753C14.6648 22.7323 14.7208 22.7813 14.7778 22.8383C12.3528 27.6353 16.0068 33.1783 16.7358 33.6223C16.7358 33.6223 15.2708 28.8993 17.2158 24.9873C18.7418 26.1823 20.2358 27.0823 21.6728 27.7423C21.7558 30.7353 24.3798 33.4423 25.0168 33.6733C25.0168 33.6733 24.1058 30.6703 24.4828 29.1863L24.6178 28.8103Z" fill="#77B255"/>
<path d="M22.0167 9.00029C21.6207 9.00029 21.2457 8.76229 21.0887 8.37229C20.8837 7.86029 21.1307 7.28029 21.6417 7.07329C21.8077 7.00529 25.6577 5.37529 26.0577 0.910292C26.1077 0.361292 26.5817 -0.0407076 27.1427 0.00329241C27.6937 0.0522924 28.0987 0.538292 28.0497 1.08829C27.5377 6.79929 22.5987 8.84329 22.3887 8.92729C22.2667 8.97729 22.1407 9.00029 22.0167 9.00029ZM27.0167 13.0003C26.6027 13.0003 26.2157 12.7413 26.0727 12.3293C25.8917 11.8093 26.1647 11.2413 26.6827 11.0583C26.8707 10.9903 31.2077 9.34729 32.0627 2.87029C32.1347 2.32329 32.6237 1.93529 33.1847 2.01029C33.7327 2.08229 34.1177 2.58429 34.0447 3.13229C33.0237 10.8823 27.5767 12.8653 27.3457 12.9453C27.2367 12.9823 27.1257 13.0003 27.0167 13.0003ZM30.0177 19.0003C29.6647 19.0003 29.3237 18.8123 29.1407 18.4813C28.8747 17.9983 29.0517 17.3903 29.5347 17.1243C29.5617 17.1093 32.2857 15.5883 33.1357 13.6063C33.3537 13.0983 33.9437 12.8643 34.4477 13.0813C34.9557 13.2983 35.1907 13.8863 34.9727 14.3943C33.8497 17.0143 30.6337 18.8023 30.4977 18.8773C30.3447 18.9603 30.1807 19.0003 30.0177 19.0003Z" fill="#5DADEC"/>
</svg>
