<svg width="40" height="40" viewBox="0 0 40 40" fill="none" xmlns="http://www.w3.org/2000/svg">
<path d="M18.8889 40C29.3209 40 37.7778 31.5432 37.7778 21.1111C37.7778 10.6791 29.3209 2.22223 18.8889 2.22223C8.45684 2.22223 0 10.6791 0 21.1111C0 31.5432 8.45684 40 18.8889 40Z" fill="#FFCC4D"/>
<path d="M19.9988 31.6666C21.2261 31.6666 22.2211 30.423 22.2211 28.8889C22.2211 27.3547 21.2261 26.1111 19.9988 26.1111C18.7715 26.1111 17.7766 27.3547 17.7766 28.8889C17.7766 30.423 18.7715 31.6666 19.9988 31.6666Z" fill="#664500"/>
<path d="M9.01214 23.7589C8.80991 23.7589 8.60436 23.7034 8.42103 23.5878C7.90214 23.2611 7.74658 22.5756 8.07325 22.0556C9.09103 20.4411 12.1855 17.68 16.6177 18.7645C17.2132 18.91 17.5777 19.5123 17.4321 20.1078C17.2855 20.7034 16.681 21.0656 16.0888 20.9223C12.0844 19.9423 9.97547 23.2067 9.95436 23.24C9.74214 23.5756 9.38103 23.7589 9.01214 23.7589ZM22.3155 19.6011C21.9932 19.6011 21.6755 19.4623 21.4555 19.1945C21.0666 18.72 21.1355 18.0189 21.611 17.63C25.1399 14.7367 29.1244 15.8945 30.7388 16.9123C31.2577 17.2389 31.4132 17.9256 31.0855 18.4445C30.7599 18.9611 30.0766 19.1189 29.5566 18.7945C29.4032 18.7011 26.1655 16.7689 23.0188 19.3489C22.8121 19.5189 22.5632 19.6011 22.3155 19.6011Z" fill="#664500"/>
<path d="M14.829 34.7478C14.7534 34.7478 14.6768 34.7378 14.6012 34.7167C14.159 34.5911 13.9012 34.1311 14.0268 33.6878C14.5123 31.9767 14.3134 30.3222 13.4823 29.1478C12.9301 28.3678 12.1434 27.8911 11.3234 27.8389C10.8634 27.8111 10.5145 27.4145 10.5434 26.9556C10.5723 26.4967 10.9668 26.1211 11.4268 26.1767C12.7523 26.2589 13.9968 26.9911 14.8412 28.1845C15.9645 29.7722 16.2523 31.9433 15.629 34.1411C15.5256 34.5089 15.1912 34.7478 14.829 34.7478ZM27.0923 31.3467C26.9345 31.3467 26.7756 31.3022 26.6345 31.2089C25.3379 30.3533 24.6123 28.8567 24.6434 27.1033C24.6756 25.2867 25.5423 23.6 26.8479 22.8045C27.2401 22.5645 27.7523 22.6889 27.9923 23.0833C28.2323 23.4767 28.1079 23.9878 27.7134 24.2278C26.8968 24.7256 26.3312 25.8933 26.309 27.1322C26.2868 28.3045 26.7412 29.2833 27.5512 29.8178C27.9356 30.0711 28.0412 30.5878 27.7879 30.9722C27.6279 31.2156 27.3634 31.3467 27.0923 31.3467Z" fill="#E2A62D"/>
<path d="M19.0878 3.02217C19.0401 2.96772 18.9656 2.93772 18.8778 2.92105C18.8778 2.92105 1.1845 -0.437835 0.418943 0.237721C-0.345501 0.914388 0.822277 18.8866 0.822277 18.8866C0.827832 18.9766 0.847832 19.0533 0.896721 19.1077C1.56783 19.8677 6.18339 16.8811 11.2067 12.4399C16.2312 7.99772 19.7589 3.78217 19.0878 3.02217Z" fill="#DD2E44"/>
<path d="M0.387681 0.301094C0.371015 0.334428 0.35657 0.379983 0.345459 0.437761C0.522126 1.96109 2.22879 14.4955 3.29213 18.4133C4.88768 17.5211 6.50879 16.3089 8.41324 14.7989C6.79546 11.8378 1.28657 0.162206 0.387681 0.301094Z" fill="#EA596E"/>
<path d="M33.2245 32.4767L21.4768 31.0289C20.2212 30.9156 18.0134 30.9045 18.1268 28.9156C18.2301 27.1122 20.3934 27.39 21.9923 27.6267L33.8123 29.5978L33.2245 32.4767Z" fill="#3B88C3"/>
<path d="M33.8111 29.5988L29.12 28.7944C28.5711 28.6955 28.0822 29.5133 28.0578 30.3788C28.03 31.3411 28.31 31.8277 28.8645 31.9411L33.4689 32.51L33.8111 29.5988Z" fill="#88C9F9"/>
<path d="M38.7979 29.2678L35.8845 31.9467L30.6768 26.2833L33.5901 23.6044C35.1023 22.2133 37.4779 22.3133 38.869 23.8256L39.019 23.9889C40.409 25.5022 40.3101 27.8767 38.7979 29.2678Z" fill="#3B88C3"/>
<path d="M35.8827 31.9482C37.134 30.7977 36.9827 28.5973 35.5448 27.0334C34.1069 25.4695 31.9269 25.1344 30.6756 26.2849C29.4243 27.4354 29.5756 29.6358 31.0135 31.1997C32.4514 32.7636 34.6314 33.0987 35.8827 31.9482Z" fill="#88C9F9"/>
<path d="M34.841 30.8154C35.4667 30.2401 35.2745 29.0132 34.4119 28.075C33.5492 27.1367 32.3427 26.8425 31.7171 27.4177C31.0914 27.993 31.2836 29.2199 32.1462 30.1581C33.0089 31.0964 34.2154 31.3906 34.841 30.8154Z" fill="#226699"/>
<path d="M2.77775 38.8889C3.69823 38.8889 4.44442 38.1427 4.44442 37.2222C4.44442 36.3017 3.69823 35.5555 2.77775 35.5555C1.85728 35.5555 1.11108 36.3017 1.11108 37.2222C1.11108 38.1427 1.85728 38.8889 2.77775 38.8889Z" fill="#55ACEE"/>
<path d="M32.2222 4.44444C33.4495 4.44444 34.4444 3.44952 34.4444 2.22222C34.4444 0.994923 33.4495 0 32.2222 0C30.9949 0 30 0.994923 30 2.22222C30 3.44952 30.9949 4.44444 32.2222 4.44444Z" fill="#55ACEE"/>
<path d="M5.40443 32.4956L2.80665 26.2556L0.457764 32.9722L5.40443 32.4956ZM28.8889 5.55556L24.4444 6.66667L25.5555 2.22223L28.8889 5.55556Z" fill="#EA596E"/>
<path d="M35.5544 14.4445L40 8.8878L36.6667 6.66669L35.5544 14.4445Z" fill="#77B255"/>
</svg>
